<?xml version="1.0" encoding="UTF-8" standalone="no"?>
<!-- Generator: Adobe Illustrator 15.0.2, SVG Export Plug-In . SVG Version: 6.00 Build 0)  -->

<svg
   xmlns:dc="http://purl.org/dc/elements/1.1/"
   xmlns:cc="http://creativecommons.org/ns#"
   xmlns:rdf="http://www.w3.org/1999/02/22-rdf-syntax-ns#"
   xmlns:svg="http://www.w3.org/2000/svg"
   xmlns="http://www.w3.org/2000/svg"
   xmlns:sodipodi="http://sodipodi.sourceforge.net/DTD/sodipodi-0.dtd"
   xmlns:inkscape="http://www.inkscape.org/namespaces/inkscape"
   version="1.1"
   id="Ebene_1"
   x="0px"
   y="0px"
   width="379.13385"
   height="131.10236"
   viewBox="0 0 379.13385 131.10236"
   enable-background="new 0 0 303.307 104.882"
   xml:space="preserve"
   inkscape:version="0.48.4 r9939"
   sodipodi:docname="Sticker_versteher.svg"><metadata
     id="metadata29"><rdf:RDF><cc:Work
         rdf:about=""><dc:format>image/svg+xml</dc:format><dc:type
           rdf:resource="http://purl.org/dc/dcmitype/StillImage" /></cc:Work></rdf:RDF></metadata><defs
     id="defs27" /><sodipodi:namedview
     pagecolor="#ffffff"
     bordercolor="#666666"
     borderopacity="1"
     objecttolerance="10"
     gridtolerance="10"
     guidetolerance="10"
     inkscape:pageopacity="0"
     inkscape:pageshadow="2"
     inkscape:window-width="1024"
     inkscape:window-height="553"
     id="namedview25"
     showgrid="false"
     inkscape:zoom="1.5001302"
     inkscape:cx="204.9822"
     inkscape:cy="52.441002"
     inkscape:window-x="0"
     inkscape:window-y="22"
     inkscape:window-maximized="1"
     inkscape:current-layer="Ebene_1"
     units="cm" /><rect
     width="380.41733"
     height="131.54636"
     id="rect3"
     x="8.4703295e-22"
     y="-0.4440009"
     style="fill:#3ea3dc" /><rect
     x="25.084639"
     y="23.866848"
     width="132.53006"
     height="35.955067"
     id="rect5"
     style="fill:#ffffff" /><rect
     x="25.084639"
     y="66.091835"
     width="236.21326"
     height="35.955067"
     id="rect7"
     style="fill:#ffffff" /><rect
     x="28.20266"
     y="34.944263"
     width="329.02771"
     height="71.073563"
     id="rect9"
     style="fill:none" /><g
     id="text11"
     transform="matrix(1.2542319,0,0,1.2542319,0,-33.330404)"><path
       d="m 32.7283,62.71487 c 0,-2.771997 -1.494003,-4.68 -4.158,-4.68 -1.259999,0 -2.268001,0.612 -2.772,1.296 l 0,-4.824 -1.512,0 0,12.744 1.512,0 0,-1.206 c 0.503999,0.701999 1.530001,1.35 2.772,1.35 2.663997,0 4.158,-1.908003 4.158,-4.68 m -1.548,0 c 0,1.943998 -1.026002,3.312 -2.754,3.312 -1.727999,0 -2.754,-1.368002 -2.754,-3.312 0,-1.943998 1.026001,-3.312 2.754,-3.312 1.727998,0 2.754,1.368002 2.754,3.312"
       style="font-size:18px;font-style:normal;font-variant:normal;font-weight:normal;font-stretch:normal;fill:#23aa5d;font-family:Apercu Pro;-inkscape-font-specification:Apercu Pro"
       id="path2993"
       inkscape:connector-curvature="0" /><path
       d="m 43.638831,62.40887 c 0,-2.375998 -1.494003,-4.374 -4.302,-4.374 -2.717998,0 -4.338,2.124002 -4.338,4.68 0,2.645997 1.692002,4.68 4.338,4.68 1.691998,0 3.132001,-0.630002 4.122,-2.538 l -1.206,-0.63 c -0.612,1.133999 -1.548002,1.8 -2.916,1.8 -1.601999,0 -2.7,-1.188002 -2.79,-2.988 l 7.092,0 0,-0.63 m -4.302,-3.006 c 1.475998,0 2.43,0.828001 2.7,2.268 l -5.382,0 c 0.305999,-1.367999 1.224001,-2.268 2.682,-2.268"
       style="font-size:18px;font-style:normal;font-variant:normal;font-weight:normal;font-stretch:normal;fill:#23aa5d;font-family:Apercu Pro;-inkscape-font-specification:Apercu Pro"
       id="path2995"
       inkscape:connector-curvature="0" /><path
       d="m 54.297362,60.98687 c 0,-1.799998 -0.828002,-2.952 -2.772,-2.952 -1.421999,0 -2.628001,0.846001 -3.294,1.818 l 0,-5.346 -1.512,0 0,12.744 1.512,0 0,-3.798 c 0,-2.591998 1.458001,-4.05 2.88,-4.05 1.097999,0 1.674,0.594001 1.674,1.908 l 0,5.94 1.512,0 0,-6.264"
       style="font-size:18px;font-style:normal;font-variant:normal;font-weight:normal;font-stretch:normal;fill:#23aa5d;font-family:Apercu Pro;-inkscape-font-specification:Apercu Pro"
       id="path2997"
       inkscape:connector-curvature="0" /><path
       d="m 57.035893,62.71487 c 0,2.501997 1.692003,4.68 4.464,4.68 2.771997,0 4.464,-2.178003 4.464,-4.68 0,-2.501998 -1.692003,-4.68 -4.464,-4.68 -2.771997,0 -4.464,2.178002 -4.464,4.68 m 1.548,0 c 0,-1.745999 1.062002,-3.312 2.916,-3.312 1.853998,0 2.916,1.566001 2.916,3.312 0,1.745998 -1.062002,3.312 -2.916,3.312 -1.853998,0 -2.916,-1.566002 -2.916,-3.312 m 0.252,-7.182 c 0,0.575999 0.450001,1.008 1.008,1.008 0.594,0 1.026,-0.432001 1.026,-1.008 0,-0.576 -0.432,-1.026 -1.026,-1.026 -0.557999,0 -1.008,0.45 -1.008,1.026 m 3.312,0 c 0,0.575999 0.450001,1.008 1.008,1.008 0.594,0 1.026,-0.432001 1.026,-1.008 0,-0.576 -0.432,-1.026 -1.026,-1.026 -0.557999,0 -1.008,0.45 -1.008,1.026"
       style="font-size:18px;font-style:normal;font-variant:normal;font-weight:normal;font-stretch:normal;fill:#23aa5d;font-family:Apercu Pro;-inkscape-font-specification:Apercu Pro"
       id="path2999"
       inkscape:connector-curvature="0" /><path
       d="m 77.126425,61.05887 c -0.108,-1.943998 -1.188002,-3.024 -2.988,-3.024 -1.511999,0 -2.646001,0.720001 -3.348,1.818 l 0,-1.674 -1.512,0 0,9.072 1.512,0 0,-3.276 c 0,-3.077997 1.494001,-4.572 3.078,-4.572 1.079998,0 1.62,0.612001 1.746,1.656 l 1.512,0"
       style="font-size:18px;font-style:normal;font-variant:normal;font-weight:normal;font-stretch:normal;fill:#23aa5d;font-family:Apercu Pro;-inkscape-font-specification:Apercu Pro"
       id="path3001"
       inkscape:connector-curvature="0" /><path
       d="m 79.468956,62.71487 c 0,2.771997 1.494002,4.68 4.158,4.68 1.241999,0 2.268,-0.648001 2.772,-1.35 l 0,1.206 1.512,0 0,-12.744 -1.512,0 0,4.824 c -0.504,-0.684 -1.512001,-1.296 -2.772,-1.296 -2.663998,0 -4.158,1.908003 -4.158,4.68 m 1.548,0 c 0,-1.943998 1.026001,-3.312 2.754,-3.312 1.727998,0 2.754,1.368002 2.754,3.312 0,1.943998 -1.026002,3.312 -2.754,3.312 -1.727999,0 -2.754,-1.368002 -2.754,-3.312"
       style="font-size:18px;font-style:normal;font-variant:normal;font-weight:normal;font-stretch:normal;fill:#23aa5d;font-family:Apercu Pro;-inkscape-font-specification:Apercu Pro"
       id="path3003"
       inkscape:connector-curvature="0" /><path
       d="m 99.361487,62.40887 c 0,-2.375998 -1.494003,-4.374 -4.302,-4.374 -2.717997,0 -4.338,2.124002 -4.338,4.68 0,2.645997 1.692003,4.68 4.338,4.68 1.691998,0 3.132001,-0.630002 4.122,-2.538 l -1.206,-0.63 c -0.611999,1.133999 -1.548001,1.8 -2.916,1.8 -1.601998,0 -2.7,-1.188002 -2.79,-2.988 l 7.092,0 0,-0.63 m -4.302,-3.006 c 1.475999,0 2.43,0.828001 2.7,2.268 l -5.382,0 c 0.306,-1.367999 1.224001,-2.268 2.682,-2.268"
       style="font-size:18px;font-style:normal;font-variant:normal;font-weight:normal;font-stretch:normal;fill:#23aa5d;font-family:Apercu Pro;-inkscape-font-specification:Apercu Pro"
       id="path3005"
       inkscape:connector-curvature="0" /><path
       d="m 109.89402,60.93287 c 0,-1.745999 -0.882,-2.898 -2.772,-2.898 -1.296,0 -2.43,0.774001 -3.078,1.818 l 0,-1.674 -1.512,0 0,9.072 1.512,0 0,-3.654 c 0,-2.645998 1.242,-4.194 2.664,-4.194 1.08,0 1.674,0.594001 1.674,1.854 l 0,5.994 1.512,0 0,-6.318"
       style="font-size:18px;font-style:normal;font-variant:normal;font-weight:normal;font-stretch:normal;fill:#23aa5d;font-family:Apercu Pro;-inkscape-font-specification:Apercu Pro"
       id="path3007"
       inkscape:connector-curvature="0" /><path
       d="m 114.09055,62.21087 6.282,0 0,-1.332 -6.282,0 0,1.332"
       style="font-size:18px;font-style:normal;font-variant:normal;font-weight:normal;font-stretch:normal;fill:#23aa5d;font-family:Apercu Pro;-inkscape-font-specification:Apercu Pro"
       id="path3009"
       inkscape:connector-curvature="0" /><path
       d="m 24.2503,95.46287 7.362,3.528 0,-1.566 -5.85,-2.754 5.85,-2.754 0,-1.566 -7.362,3.528 0,1.584"
       style="font-size:18px;font-style:normal;font-variant:normal;font-weight:normal;font-stretch:normal;fill:#ec6461;font-family:Apercu Pro;-inkscape-font-specification:Apercu Pro"
       id="path3011"
       inkscape:connector-curvature="0" /><path
       d="m 42.126831,91.17887 -2.916,7.272 -2.916,-7.272 -1.638,0 3.798,9.072 1.512,0 3.798,-9.072 -1.638,0"
       id="path3013"
       inkscape:connector-curvature="0" /><path
       d="m 54.783362,95.40887 c 0,-2.375998 -1.494003,-4.374 -4.302,-4.374 -2.717997,0 -4.338,2.124002 -4.338,4.68 0,2.645997 1.692003,4.68 4.338,4.68 1.691998,0 3.132001,-0.630002 4.122,-2.538 l -1.206,-0.63 c -0.611999,1.133999 -1.548001,1.8 -2.916,1.8 -1.601998,0 -2.7,-1.188002 -2.79,-2.988 l 7.092,0 0,-0.63 m -4.302,-3.006 c 1.475999,0 2.43,0.828001 2.7,2.268 l -5.382,0 c 0.306,-1.367999 1.224001,-2.268 2.682,-2.268"
       id="path3015"
       inkscape:connector-curvature="0" /><path
       d="m 65.981893,94.05887 c -0.108,-1.943998 -1.188002,-3.024 -2.988,-3.024 -1.511998,0 -2.646,0.720001 -3.348,1.818 l 0,-1.674 -1.512,0 0,9.072 1.512,0 0,-3.276 c 0,-3.077997 1.494002,-4.572 3.078,-4.572 1.079999,0 1.62,0.612001 1.746,1.656 l 1.512,0"
       id="path3017"
       inkscape:connector-curvature="0" /><path
       d="m 72.608425,91.03487 c -1.673999,0 -3.096,1.008001 -3.096,2.628 0,1.781998 1.404001,2.304 2.934,2.628 1.439998,0.305999 2.34,0.558001 2.34,1.332 0,0.953999 -0.900002,1.404 -1.926,1.404 -1.241999,0 -2.106001,-0.684001 -2.502,-1.8 l -1.44,0.54 c 0.557999,1.727998 2.124001,2.628 3.942,2.628 1.871998,0 3.492,-1.044002 3.492,-2.916 0,-1.637999 -1.566002,-2.124001 -3.258,-2.466 -1.349999,-0.27 -2.106,-0.630001 -2.106,-1.404 0,-0.881999 0.792,-1.206 1.566,-1.206 0.971999,0 1.62,0.432001 2.178,1.44 l 1.188,-0.846 c -0.684,-1.241999 -1.674002,-1.962 -3.312,-1.962"
       id="path3019"
       inkscape:connector-curvature="0" /><path
       d="m 79.396956,92.54687 2.412,0 0,4.698 c 0,2.105998 1.098002,3.15 3.078,3.15 1.133999,0 1.962001,-0.342 2.79,-1.17 l -0.558,-1.278 c -0.791999,0.827999 -1.440001,1.08 -2.232,1.08 -1.007999,0 -1.566,-0.576002 -1.566,-1.836 l 0,-4.644 4.428,0 0,-1.368 -4.428,0 0,-3.672 -1.512,0.954 0,2.718 -2.412,0 0,1.368"
       id="path3021"
       inkscape:connector-curvature="0" /><path
       d="m 99.361487,95.40887 c 0,-2.375998 -1.494003,-4.374 -4.302,-4.374 -2.717997,0 -4.338,2.124002 -4.338,4.68 0,2.645997 1.692003,4.68 4.338,4.68 1.691998,0 3.132001,-0.630002 4.122,-2.538 l -1.206,-0.63 c -0.611999,1.133999 -1.548001,1.8 -2.916,1.8 -1.601998,0 -2.7,-1.188002 -2.79,-2.988 l 7.092,0 0,-0.63 m -4.302,-3.006 c 1.475999,0 2.43,0.828001 2.7,2.268 l -5.382,0 c 0.306,-1.367999 1.224001,-2.268 2.682,-2.268"
       id="path3023"
       inkscape:connector-curvature="0" /><path
       d="m 110.02002,93.98687 c 0,-1.799998 -0.828,-2.952 -2.772,-2.952 -1.422,0 -2.628,0.846001 -3.294,1.818 l 0,-5.346 -1.512,0 0,12.744 1.512,0 0,-3.798 c 0,-2.591998 1.458,-4.05 2.88,-4.05 1.098,0 1.674,0.594001 1.674,1.908 l 0,5.94 1.512,0 0,-6.264"
       id="path3025"
       inkscape:connector-curvature="0" /><path
       d="m 121.65055,95.40887 c 0,-2.375998 -1.494,-4.374 -4.302,-4.374 -2.718,0 -4.338,2.124002 -4.338,4.68 0,2.645997 1.692,4.68 4.338,4.68 1.692,0 3.132,-0.630002 4.122,-2.538 l -1.206,-0.63 c -0.612,1.133999 -1.548,1.8 -2.916,1.8 -1.602,0 -2.7,-1.188002 -2.79,-2.988 l 7.092,0 0,-0.63 m -4.302,-3.006 c 1.476,0 2.43,0.828001 2.7,2.268 l -5.382,0 c 0.306,-1.367999 1.224,-2.268 2.682,-2.268"
       id="path3027"
       inkscape:connector-curvature="0" /><path
       d="m 132.84908,94.05887 c -0.108,-1.943998 -1.188,-3.024 -2.988,-3.024 -1.512,0 -2.646,0.720001 -3.348,1.818 l 0,-1.674 -1.512,0 0,9.072 1.512,0 0,-3.276 c 0,-3.077997 1.494,-4.572 3.078,-4.572 1.08,0 1.62,0.612001 1.746,1.656 l 1.512,0"
       id="path3029"
       inkscape:connector-curvature="0" /><path
       d="m 135.19161,101.69087 8.64,0 0,-1.44 -8.64,0 0,1.44"
       id="path3031"
       inkscape:connector-curvature="0" /><path
       d="m 147.39814,92.51087 2.772,0 0,6.408 -3.132,0 0,1.332 7.992,0 0,-1.332 -3.348,0 0,-7.74 -4.284,0 0,1.332 m 2.178,-3.744 c 0,0.683999 0.558,1.224 1.242,1.224 0.702,0 1.242,-0.540001 1.242,-1.224 0,-0.702 -0.54,-1.26 -1.242,-1.26 -0.684,0 -1.242,0.558 -1.242,1.26"
       id="path3033"
       inkscape:connector-curvature="0" /><path
       d="m 165.61667,93.93287 c 0,-1.745999 -0.882,-2.898 -2.772,-2.898 -1.29599,0 -2.43,0.774001 -3.078,1.818 l 0,-1.674 -1.512,0 0,9.072 1.512,0 0,-3.654 c 0,-2.645998 1.24201,-4.194 2.664,-4.194 1.08,0 1.674,0.594001 1.674,1.854 l 0,5.994 1.512,0 0,-6.318"
       id="path3035"
       inkscape:connector-curvature="0" /><path
       d="m 186.93374,86.75087 -7.308,14.4 1.548,0 7.308,-14.4 -1.548,0"
       style="font-size:18px;font-style:normal;font-variant:normal;font-weight:normal;font-stretch:normal;fill:#ec6461;font-family:Apercu Pro;-inkscape-font-specification:Apercu Pro"
       id="path3037"
       inkscape:connector-curvature="0" /><path
       d="m 199.05027,93.87887 -7.362,-3.528 0,1.566 5.85,2.754 -5.85,2.754 0,1.566 7.362,-3.528 0,-1.584"
       style="font-size:18px;font-style:normal;font-variant:normal;font-weight:normal;font-stretch:normal;fill:#ec6461;font-family:Apercu Pro;-inkscape-font-specification:Apercu Pro"
       id="path3039"
       inkscape:connector-curvature="0" /></g><rect
     x="351.18494"
     y="17.803909"
     width="18.186363"
     height="94.903969"
     id="rect21"
     style="fill:none" /><g
     transform="matrix(0,-1.2542319,1.2542319,0,0,-33.330404)"
     style="font-size:12px;font-family:SourceCodePro-Regular"
     id="text23"><path
       d="m -110.79617,286.61191 c -0.312,0.732 -0.852,1.116 -1.68,1.116 -1.2,0 -1.86,-0.96 -1.86,-2.208 0,-1.24799 0.66,-2.208 1.86,-2.208 0.828,0 1.368,0.38401 1.68,1.116 l 0.876,-0.36 c -0.492,-1.12799 -1.308,-1.668 -2.556,-1.668 -1.848,0 -2.892,1.47601 -2.892,3.12 0,1.644 1.044,3.12 2.892,3.12 1.248,0 2.064,-0.54 2.556,-1.668 l -0.876,-0.36"
       style="font-style:normal;font-variant:normal;font-weight:normal;font-stretch:normal;font-family:Apercu Pro;-inkscape-font-specification:Apercu Pro"
       id="path3042"
       inkscape:connector-curvature="0" /><path
       d="m -108.26248,285.51991 c 0,1.668 1.128,3.12 2.976,3.12 1.84799,0 2.976,-1.452 2.976,-3.12 0,-1.66799 -1.12801,-3.12 -2.976,-3.12 -1.848,0 -2.976,1.45201 -2.976,3.12 m 1.032,0 c 0,-1.16399 0.708,-2.208 1.944,-2.208 1.23599,0 1.944,1.04401 1.944,2.208 0,1.164 -0.70801,2.208 -1.944,2.208 -1.236,0 -1.944,-1.044 -1.944,-2.208"
       style="font-style:normal;font-variant:normal;font-weight:normal;font-stretch:normal;font-family:Apercu Pro;-inkscape-font-specification:Apercu Pro"
       id="path3044"
       inkscape:connector-curvature="0" /><path
       d="m -100.7368,285.51991 c 0,1.848 0.996004,3.12 2.772003,3.12 0.827999,0 1.512,-0.432 1.848,-0.9 l 0,0.804 1.008,0 0,-8.496 -1.008,0 0,3.216 c -0.336,-0.45599 -1.008001,-0.864 -1.848,-0.864 -1.775999,0 -2.772003,1.27201 -2.772003,3.12 m 1.032003,0 c 0,-1.29599 0.684001,-2.208 1.836,-2.208 1.151998,0 1.836,0.91201 1.836,2.208 0,1.296 -0.684002,2.208 -1.836,2.208 -1.151999,0 -1.836,-0.912 -1.836,-2.208"
       style="font-style:normal;font-variant:normal;font-weight:normal;font-stretch:normal;font-family:Apercu Pro;-inkscape-font-specification:Apercu Pro"
       id="path3046"
       inkscape:connector-curvature="0" /><path
       d="m -87.47511,285.31591 c 0,-1.58399 -0.996002,-2.916 -2.868,-2.916 -1.811998,0 -2.892,1.41601 -2.892,3.12 0,1.764 1.128002,3.12 2.892,3.12 1.127999,0 2.088001,-0.42 2.748,-1.692 l -0.804,-0.42 c -0.408,0.756 -1.032001,1.2 -1.944,1.2 -1.067999,0 -1.8,-0.792 -1.86,-1.992 l 4.728,0 0,-0.42 m -2.868,-2.004 c 0.983999,0 1.62,0.55201 1.8,1.512 l -3.588,0 c 0.204,-0.91199 0.816001,-1.512 1.788,-1.512"
       style="font-style:normal;font-variant:normal;font-weight:normal;font-stretch:normal;font-family:Apercu Pro;-inkscape-font-specification:Apercu Pro"
       id="path3048"
       inkscape:connector-curvature="0" /><path
       d="m -80.753422,280.39591 c -0.336,-0.204 -0.708001,-0.348 -1.26,-0.348 -1.151999,0 -1.86,0.61201 -1.86,2.076 l 0,0.372 -1.704,0 0,0.912 1.704,0 0,5.136 1.008,0 0,-5.136 2.352,0 0,-0.912 -2.352,0 0,-0.396 c 0,-0.77999 0.312,-1.14 0.888,-1.14 0.323999,0 0.6,0.084 0.972,0.324 l 0.252,-0.888"
       style="font-style:normal;font-variant:normal;font-weight:normal;font-stretch:normal;font-family:Apercu Pro;-inkscape-font-specification:Apercu Pro"
       id="path3050"
       inkscape:connector-curvature="0" /><path
       d="m -78.543735,285.51991 c 0,1.668 1.128002,3.12 2.976,3.12 1.847998,0 2.976,-1.452 2.976,-3.12 0,-1.66799 -1.128002,-3.12 -2.976,-3.12 -1.847998,0 -2.976,1.45201 -2.976,3.12 m 1.032,0 c 0,-1.16399 0.708001,-2.208 1.944,-2.208 1.235999,0 1.944,1.04401 1.944,2.208 0,1.164 -0.708001,2.208 -1.944,2.208 -1.235999,0 -1.944,-1.044 -1.944,-2.208"
       style="font-style:normal;font-variant:normal;font-weight:normal;font-stretch:normal;font-family:Apercu Pro;-inkscape-font-specification:Apercu Pro"
       id="path3052"
       inkscape:connector-curvature="0" /><path
       d="m -65.150047,284.41591 c -0.072,-1.29599 -0.792002,-2.016 -1.992,-2.016 -1.007999,0 -1.764001,0.48001 -2.232,1.212 l 0,-1.116 -1.008,0 0,6.048 1.008,0 0,-2.184 c 0,-2.05199 0.996001,-3.048 2.052,-3.048 0.719999,0 1.08,0.40801 1.164,1.104 l 1.008,0"
       style="font-style:normal;font-variant:normal;font-weight:normal;font-stretch:normal;font-family:Apercu Pro;-inkscape-font-specification:Apercu Pro"
       id="path3054"
       inkscape:connector-curvature="0" /><path
       d="m -61.66836,287.63191 c 0,0.552 0.408001,0.96 0.96,0.96 0.551999,0 0.96,-0.408 0.96,-0.96 0,-0.55199 -0.408001,-0.96 -0.96,-0.96 -0.551999,0 -0.96,0.40801 -0.96,0.96"
       style="font-style:normal;font-variant:normal;font-weight:normal;font-stretch:normal;font-family:Apercu Pro;-inkscape-font-specification:Apercu Pro"
       id="path3056"
       inkscape:connector-curvature="0" /><path
       d="m -56.158672,285.51991 c 0,1.848 0.996001,3.12 2.772,3.12 0.827999,0 1.512,-0.432 1.848,-0.9 l 0,0.804 1.008,0 0,-8.496 -1.008,0 0,3.216 c -0.336,-0.45599 -1.008001,-0.864 -1.848,-0.864 -1.775999,0 -2.772,1.27201 -2.772,3.12 m 1.032,0 c 0,-1.29599 0.684001,-2.208 1.836,-2.208 1.151998,0 1.836,0.91201 1.836,2.208 0,1.296 -0.684002,2.208 -1.836,2.208 -1.151999,0 -1.836,-0.912 -1.836,-2.208"
       style="font-style:normal;font-variant:normal;font-weight:normal;font-stretch:normal;font-family:Apercu Pro;-inkscape-font-specification:Apercu Pro"
       id="path3058"
       inkscape:connector-curvature="0" /><path
       d="m -42.896985,285.31591 c 0,-1.58399 -0.996002,-2.916 -2.868,-2.916 -1.811998,0 -2.892,1.41601 -2.892,3.12 0,1.764 1.128002,3.12 2.892,3.12 1.127999,0 2.088001,-0.42 2.748,-1.692 l -0.804,-0.42 c -0.408,0.756 -1.032001,1.2 -1.944,1.2 -1.067999,0 -1.8,-0.792 -1.86,-1.992 l 4.728,0 0,-0.42 m -2.868,-2.004 c 0.983999,0 1.62,0.55201 1.8,1.512 l -3.588,0 c 0.204,-0.91199 0.816001,-1.512 1.788,-1.512"
       style="font-style:normal;font-variant:normal;font-weight:normal;font-stretch:normal;font-family:Apercu Pro;-inkscape-font-specification:Apercu Pro"
       id="path3060"
       inkscape:connector-curvature="0" /></g></svg>